<?xml version="1.0" encoding="utf-8"?>
<!-- Generator: Adobe Illustrator 19.2.0, SVG Export Plug-In . SVG Version: 6.00 Build 0)  -->
<!DOCTYPE svg PUBLIC "-//W3C//DTD SVG 1.1//EN" "http://www.w3.org/Graphics/SVG/1.1/DTD/svg11.dtd">
<svg version="1.1" id="Layer_1" xmlns="http://www.w3.org/2000/svg" xmlns:xlink="http://www.w3.org/1999/xlink" x="0px" y="0px"
	 viewBox="0 0 960 560" style="enable-background:new 0 0 960 560;" xml:space="preserve">
<style type="text/css">
	.st0{fill:#00B5AD;}
</style>
<g>
	<path class="st0" d="M-569,423.9c0,33.6-11.7,59.2-35,76.8c-23.3,17.6-58.3,26.4-104.7,26.4c-23.8,0-44.1-1.6-60.9-4.8
		c-16.8-3.2-32.5-8-47.2-14.2v-73.8c16.6,7.8,35.3,14.4,56.1,19.6s39.1,7.9,54.9,7.9c32.4,0,48.6-9.4,48.6-28.1
		c0-7-2.2-12.7-6.4-17.1c-4.3-4.4-11.7-9.4-22.3-14.9s-24.6-12.1-42.2-19.5c-25.2-10.5-43.7-20.3-55.5-29.3
		c-11.8-9-20.4-19.3-25.8-30.9c-5.4-11.6-8.1-25.9-8.1-42.9c0-29.1,11.3-51.6,33.8-67.5c22.6-15.9,54.5-23.9,95.9-23.9
		c39.5,0,77.8,8.6,115.1,25.8l-27,64.5c-16.4-7-31.7-12.8-46-17.3c-14.3-4.5-28.8-6.7-43.7-6.7c-26.4,0-39.6,7.1-39.6,21.4
		c0,8,4.2,14.9,12.7,20.8s27.1,14.6,55.8,26.1c25.6,10.4,44.3,20,56.2,29c11.9,9,20.7,19.3,26.4,31.1
		C-571.9,393.7-569,407.7-569,423.9z"/>
	<path class="st0" d="M-361.3,455.8c15.6,0,34.4-3.4,56.2-10.3v66.5c-22.3,10-49.6,14.9-82,14.9c-35.7,0-61.8-9-78.1-27.1
		c-16.3-18.1-24.5-45.2-24.5-81.3V260.7h-42.8v-37.8l49.2-29.9l25.8-69.1h57.1v69.7h91.7v67.1h-91.7v157.9
		c0,12.7,3.6,22.1,10.7,28.1C-382.5,452.8-373,455.8-361.3,455.8z"/>
	<path class="st0" d="M58.8,356.8c0,53.3-14.1,95-42.2,125.1C-11.5,512-50.7,527-100.9,527c-31.4,0-59.2-6.9-83.2-20.7
		s-42.5-33.5-55.4-59.3s-19.3-55.9-19.3-90.2c0-53.5,14-95.1,41.9-124.8c27.9-29.7,67.2-44.5,117.8-44.5c31.4,0,59.2,6.8,83.2,20.5
		c24,13.7,42.5,33.3,55.4,58.9C52.3,292.4,58.8,322.4,58.8,356.8z M-167.7,356.8c0,32.4,5.3,56.9,16,73.5c10.6,16.6,28,24.9,52,24.9
		c23.8,0,41-8.2,51.4-24.8c10.4-16.5,15.7-41.1,15.7-73.7c0-32.4-5.3-56.7-15.8-72.9c-10.5-16.2-27.8-24.3-51.9-24.3
		c-23.8,0-41,8.1-51.6,24.2S-167.7,324.2-167.7,356.8z"/>
	<path class="st0" d="M265.6,527c-102,0-152.9-56-152.9-167.9c0-55.7,13.9-98.2,41.6-127.6c27.7-29.4,67.5-44.1,119.2-44.1
		c37.9,0,71.9,7.4,102,22.3l-26.4,69.1c-14.1-5.7-27.2-10.3-39.3-13.9c-12.1-3.6-24.2-5.4-36.3-5.4c-46.5,0-69.7,33-69.7,99
		c0,64.1,23.2,96.1,69.7,96.1c17.2,0,33.1-2.3,47.8-6.9c14.6-4.6,29.3-11.8,43.9-21.5v76.5c-14.5,9.2-29.1,15.5-43.8,19
		C306.7,525.2,288.1,527,265.6,527z"/>
	<path class="st0" d="M527,343l39-49.8l91.7-99.6h100.8L628.3,335.7l138,185.4H663.2l-94.3-132.7l-38.4,30.8v102h-89.4V65.3h89.4
		v203.3l-4.7,74.4H527z"/>
	<path class="st0" d="M1363.5,108.9c0-29.1,16.2-43.7,48.6-43.7c32.4,0,48.6,14.6,48.6,43.7c0,13.9-4.1,24.7-12.2,32.4
		c-8.1,7.7-20.3,11.6-36.5,11.6C1379.7,152.9,1363.5,138.2,1363.5,108.9z M1456.7,521.1h-89.4V193.6h89.4V521.1z"/>
	<path class="st0" d="M1778.4,521.1h-258.7v-52.7l151.8-206.5h-142.7v-68.3h244.3v58l-147.7,201.3h152.9V521.1z"/>
</g>
<polygon class="st0" points="1313.9,35 1153.4,114.3 1190.5,139.1 1045.1,357.3 835.3,33 759.9,81.8 1044,520.8 1265.2,188.9 
	1302.4,213.7 "/>
</svg>
