<?xml version="1.0" encoding="utf-8"?>
<!-- Generator: Adobe Illustrator 19.2.0, SVG Export Plug-In . SVG Version: 6.00 Build 0)  -->
<!DOCTYPE svg PUBLIC "-//W3C//DTD SVG 1.1//EN" "http://www.w3.org/Graphics/SVG/1.1/DTD/svg11.dtd">
<svg version="1.1" id="Layer_1" xmlns="http://www.w3.org/2000/svg" xmlns:xlink="http://www.w3.org/1999/xlink" x="0px" y="0px"
	 viewBox="0 0 2595.9 494.1" style="enable-background:new 0 0 2595.9 494.1;" xml:space="preserve">
<style type="text/css">
	.st0{fill:#00B5AD;}
</style>
<g>
	<path class="st0" d="M248.5,390.9c0,33.6-11.7,59.2-35,76.8c-23.3,17.6-58.3,26.4-104.7,26.4c-23.8,0-44.1-1.6-60.9-4.8
		c-16.8-3.2-32.5-8-47.2-14.2v-73.8c16.6,7.8,35.3,14.4,56.1,19.6s39.1,7.9,54.9,7.9c32.4,0,48.6-9.4,48.6-28.1
		c0-7-2.2-12.7-6.4-17.1c-4.3-4.4-11.7-9.4-22.3-14.9s-24.6-12.1-42.2-19.5c-25.2-10.5-43.7-20.3-55.5-29.3S13.5,300.6,8.1,289
		C2.7,277.4,0,263.1,0,246.1c0-29.1,11.3-51.6,33.8-67.5c22.6-15.9,54.5-23.9,95.9-23.9c39.5,0,77.8,8.6,115.1,25.8l-27,64.5
		c-16.4-7-31.7-12.8-46-17.3S143,221,128.1,221c-26.4,0-39.6,7.1-39.6,21.4c0,8,4.2,14.9,12.7,20.8s27.1,14.6,55.8,26.1
		c25.6,10.4,44.3,20,56.2,29s20.7,19.3,26.4,31.1C245.6,360.7,248.5,374.7,248.5,390.9z"/>
	<path class="st0" d="M456.2,422.8c15.6,0,34.4-3.4,56.2-10.3V479c-22.3,10-49.6,14.9-82,14.9c-35.7,0-61.8-9-78.1-27.1
		c-16.3-18.1-24.5-45.2-24.5-81.3V227.7H285v-37.8l49.2-29.9L360,90.9h57.1v69.7h91.7v67.1h-91.7v157.9c0,12.7,3.6,22.1,10.7,28.1
		C435,419.8,444.5,422.8,456.2,422.8z"/>
	<path class="st0" d="M876.3,323.8c0,53.3-14.1,95-42.2,125.1C806,479,766.8,494,716.6,494c-31.4,0-59.2-6.9-83.2-20.7
		S590.9,439.8,578,414s-19.3-55.9-19.3-90.2c0-53.5,14-95.1,41.9-124.8c27.9-29.7,67.2-44.5,117.8-44.5c31.4,0,59.2,6.8,83.2,20.5
		s42.5,33.3,55.4,58.9C869.8,259.4,876.3,289.4,876.3,323.8z M649.8,323.8c0,32.4,5.3,56.9,16,73.5c10.6,16.6,28,24.9,52,24.9
		c23.8,0,41-8.2,51.4-24.8c10.4-16.5,15.7-41.1,15.7-73.7c0-32.4-5.3-56.7-15.8-72.9c-10.5-16.2-27.8-24.3-51.9-24.3
		c-23.8,0-41,8.1-51.6,24.2C655,266.8,649.8,291.2,649.8,323.8z"/>
	<path class="st0" d="M1083.1,494c-102,0-152.9-56-152.9-167.9c0-55.7,13.9-98.2,41.6-127.6c27.7-29.4,67.5-44.1,119.2-44.1
		c37.9,0,71.9,7.4,102,22.3l-26.4,69.1c-14.1-5.7-27.2-10.3-39.3-13.9s-24.2-5.4-36.3-5.4c-46.5,0-69.7,33-69.7,99
		c0,64.1,23.2,96.1,69.7,96.1c17.2,0,33.1-2.3,47.8-6.9c14.6-4.6,29.3-11.8,43.9-21.5v76.5c-14.5,9.2-29.1,15.5-43.8,19
		C1124.2,492.2,1105.6,494,1083.1,494z"/>
	<path class="st0" d="M1344.5,310l39-49.8l91.7-99.6H1576l-130.2,142.1l138,185.4h-103.1l-94.3-132.7l-38.4,30.8v102h-89.4V32.3
		h89.4v203.3l-4.7,74.4H1344.5z"/>
	<path class="st0" d="M2181,75.9c0-29.1,16.2-43.7,48.6-43.7c32.4,0,48.6,14.6,48.6,43.7c0,13.9-4.1,24.7-12.2,32.4
		c-8.1,7.7-20.3,11.6-36.5,11.6C2197.2,119.9,2181,105.2,2181,75.9z M2274.2,488.1h-89.4V160.6h89.4V488.1z"/>
	<path class="st0" d="M2595.9,488.1h-258.7v-52.7L2489,228.9h-142.7v-68.3h244.3v58l-147.7,201.3h152.9L2595.9,488.1L2595.9,488.1z"
		/>
</g>
<polygon class="st0" points="2131.4,2 1970.9,81.3 2008,106.1 1862.6,324.3 1652.8,0 1577.4,48.8 1861.5,487.8 2082.7,155.9 
	2119.9,180.7 "/>
</svg>
